# xmcd CD database file generated by OrangeCD 6.4
#
# Track frame offsets:
#	150
#	12841
#	26842
#	39900
#	52024
#	64129
#	76246
#	88245
#	100209
#	118282
#	135073
#	146723
#	171943
#	197024
#	222475
#	249311
#	254821
#	263576
#	272214
#	279079
#	294862
#	308886
#
# Disc length: 4396 seconds
#
# Revision: 0
# Processed by: cddbd v1.5.2PL0 Copyright (c) Steve Scherf et al.
# Submitted via: OrangeCD 6.4
#
DISCID=43112a16
DTITLE=Jimi Hendrix - Moonbeams and Fairytales
DYEAR=2008
DGENRE=Blues Rock
TTITLE0=Purple Haze (Studio Track plus Live Vocals?)
TTITLE1=Mr. Bad Luck (Look Over Yonder)
TTITLE2=Mr. Bad Luck (Different Mix)
TTITLE3=She's So Fine (Mono)
TTITLE4=She's So Fine
TTITLE5=She's So Fine (Mix)
TTITLE6=She's So Fine (Original Lead Vocal)
TTITLE7=She's So Fine (Instrumental Mix)
TTITLE8=Taking Care Of No Business (With O/D)
TTITLE9=Taking Care Of No Business (Original Tracks)
TTITLE10=Cat Talkin' To Me (Vocal Version)
TTITLE11=If 6 Was 9
TTITLE12=If 6 Was 9
TTITLE13=If 6 Was 9 (Fake Alt. Mix, Sothebys Reels)
TTITLE14=If 6 Was 9 (Longer Alt. Mono Mix)
TTITLE15=E.X.P. (Mono)
TTITLE16=E.X.P.
TTITLE17=E.X.P. Sotheby's Mix)
TTITLE18=Burning Of The Midnight Lamp (Instrumental)
TTITLE19=The Wind Cries Mary (Studio Track plus Live Vocals)
TTITLE20=Hey Joe
TTITLE21=Wild Thing
EXTD=
EXTT0=
EXTT1=
EXTT2=
EXTT3=
EXTT4=
EXTT5=
EXTT6=
EXTT7=
EXTT8=
EXTT9=
EXTT10=
EXTT11=
EXTT12=
EXTT13=
EXTT14=
EXTT15=
EXTT16=
EXTT17=
EXTT18=
EXTT19=
EXTT20=
EXTT21=
PLAYORDER=
